<svg width="400" height="400" viewBox="0 0 400 400" fill="none" xmlns="http://www.w3.org/2000/svg">
<rect width="400" height="400" rx="10" fill="#8FE8DC"/>
<path fill-rule="evenodd" clip-rule="evenodd" d="M144 200.558V201.634C174.033 202.627 198.17 226.909 198.93 257H199.979C200.755 226.273 225.907 201.603 256.821 201.603C256.888 201.603 256.956 201.603 257.023 201.603V200.59L256.993 200.59L256.821 200.59C225.5 200.59 200.094 175.266 199.961 143.977H198.948C198.817 174.627 174.436 199.553 144 200.558Z" fill="white"/>
<path fill-rule="evenodd" clip-rule="evenodd" d="M96.1037 231.133L96.6763 231.133C97.2043 215.154 110.123 202.313 126.133 201.908L126.133 201.35C109.785 200.937 96.6595 187.555 96.6595 171.108L96.6597 171L96.1203 171L96.1205 171.108C96.1205 187.772 82.6472 201.289 66 201.359L66 201.899C82.3071 201.968 95.5687 214.94 96.1037 231.133Z" fill="#313746"/>
<path fill-rule="evenodd" clip-rule="evenodd" d="M199.104 331.133L199.676 331.133C200.204 315.154 213.123 302.313 229.133 301.908L229.133 301.35C212.785 300.937 199.66 287.555 199.66 271.108L199.66 271L199.12 271L199.121 271.108C199.121 287.772 185.647 301.289 169 301.359L169 301.899C185.307 301.968 198.569 314.94 199.104 331.133Z" fill="#ADCAD6"/>
<path fill-rule="evenodd" clip-rule="evenodd" d="M126.104 158.133L126.676 158.133C127.204 142.154 140.123 129.312 156.133 128.908L156.133 128.35C139.785 127.937 126.659 114.555 126.659 98.1076L126.66 98L126.12 98L126.12 98.1076C126.12 114.771 112.647 128.288 96 128.359L96 128.898C112.307 128.968 125.569 141.94 126.104 158.133Z" fill="#FE5252"/>
<mask id="path-6-inside-1_412_3067" fill="white">
<path fill-rule="evenodd" clip-rule="evenodd" d="M126.104 291.133L126.676 291.133C127.204 275.154 140.123 262.312 156.133 261.908L156.133 261.35C139.785 260.937 126.659 247.555 126.659 231.108L126.66 231L126.12 231L126.12 231.108C126.12 247.771 112.647 261.288 96 261.359L96 261.898C112.307 261.968 125.569 274.94 126.104 291.133Z"/>
</mask>
<path d="M126.676 291.133L126.676 292.133L127.644 292.133L127.676 291.166L126.676 291.133ZM126.104 291.133L125.104 291.166L125.136 292.133L126.104 292.133L126.104 291.133ZM156.133 261.908L156.158 262.908L157.133 262.883L157.133 261.908L156.133 261.908ZM156.133 261.35L157.133 261.35L157.133 260.375L156.158 260.35L156.133 261.35ZM126.659 231.108L125.659 231.106L125.659 231.108L126.659 231.108ZM126.66 231L127.66 231.002L127.661 230L126.66 230L126.66 231ZM126.12 231L126.12 230L125.118 230L125.12 231.002L126.12 231ZM126.12 231.108L127.12 231.108L127.12 231.106L126.12 231.108ZM96 261.359L95.9957 260.359L95 260.363L95 261.359L96 261.359ZM96 261.898L95 261.898L95 262.894L95.9957 262.898L96 261.898ZM126.676 290.133L126.104 290.133L126.104 292.133L126.676 292.133L126.676 290.133ZM156.108 260.908C139.568 261.326 126.222 274.592 125.677 291.1L127.676 291.166C128.186 275.716 140.678 263.299 156.158 262.908L156.108 260.908ZM155.133 261.35L155.133 261.908L157.133 261.908L157.133 261.35L155.133 261.35ZM125.659 231.108C125.659 248.099 139.219 261.923 156.108 262.349L156.158 260.35C140.351 259.951 127.659 247.011 127.659 231.108L125.659 231.108ZM125.66 230.998L125.659 231.106L127.659 231.109L127.66 231.002L125.66 230.998ZM126.12 232L126.66 232L126.66 230L126.12 230L126.12 232ZM127.12 231.106L127.12 230.998L125.12 231.002L125.12 231.109L127.12 231.106ZM96.0043 262.359C113.202 262.286 127.12 248.322 127.12 231.108L125.12 231.108C125.12 247.221 112.093 260.291 95.9957 260.359L96.0043 262.359ZM97 261.898L97 261.359L95 261.359L95 261.898L97 261.898ZM95.9957 262.898C111.764 262.965 124.587 275.508 125.104 291.166L127.103 291.1C126.55 274.371 112.851 260.97 96.0043 260.898L95.9957 262.898Z" fill="white" mask="url(#path-6-inside-1_412_3067)"/>
<path fill-rule="evenodd" clip-rule="evenodd" d="M272.104 158.133L272.676 158.133C273.204 142.154 286.123 129.312 302.133 128.908L302.133 128.35C285.785 127.937 272.659 114.555 272.659 98.1076L272.66 98L272.12 98L272.12 98.1076C272.12 114.771 258.647 128.288 242 128.359L242 128.898C258.307 128.968 271.569 141.94 272.104 158.133Z" fill="#ADCAD6"/>
<path fill-rule="evenodd" clip-rule="evenodd" d="M272.104 291.133L272.676 291.133C273.204 275.154 286.123 262.312 302.133 261.908L302.133 261.35C285.785 260.937 272.659 247.555 272.659 231.108L272.66 231L272.12 231L272.12 231.108C272.12 247.771 258.647 261.288 242 261.359L242 261.898C258.307 261.968 271.569 274.94 272.104 291.133Z" fill="#E1E1E1"/>
<path fill-rule="evenodd" clip-rule="evenodd" d="M305.104 231.133L305.676 231.133C306.204 215.154 319.123 202.312 335.133 201.908L335.133 201.35C318.785 200.937 305.659 187.555 305.659 171.108L305.66 171L305.12 171L305.12 171.108C305.12 187.771 291.647 201.288 275 201.359L275 201.898C291.307 201.968 304.569 214.94 305.104 231.133Z" fill="#FE5252"/>
</svg>
