<svg width="206" height="368" viewBox="0 0 206 368" fill="none" xmlns="http://www.w3.org/2000/svg">
<path d="M0 103.383C56.0595 103.794 101.426 149.161 101.838 205.221H103.383C103.794 149.161 149.161 103.794 205.221 103.383V101.838C149.161 101.426 103.794 56.0595 103.383 0H101.838C101.426 56.0595 56.0595 101.426 0 101.838V103.383Z" fill="#FE5252"/>
<path d="M92.8066 232.798C98.1918 232.838 102.55 237.196 102.589 242.581H102.738C102.777 237.196 107.135 232.838 112.52 232.798V232.65C107.135 232.61 102.777 228.252 102.738 222.867H102.589C102.55 228.252 98.1918 232.61 92.8066 232.65V232.798Z" fill="#FE5252"/>
<path d="M91.5 281.103C94.3721 281.124 96.6964 283.449 96.7175 286.321H96.7966C96.8177 283.449 99.142 281.124 102.014 281.103V281.024C99.142 281.003 96.8177 278.679 96.7966 275.807H96.7175C96.6964 278.679 94.3721 281.003 91.5 281.024V281.103Z" fill="#FE5252"/>
<path d="M105.225 274.566C108.097 274.587 110.421 276.911 110.442 279.784H110.521C110.542 276.911 112.867 274.587 115.739 274.566V274.487C112.867 274.466 110.542 272.142 110.521 269.27H110.442C110.421 272.142 108.097 274.466 105.225 274.487V274.566Z" fill="#FE5252"/>
<path fill-rule="evenodd" clip-rule="evenodd" d="M113.529 70.7316V71.0566C122.6 71.356 129.889 78.6893 130.119 87.777H130.436C130.67 78.4974 138.266 71.047 147.603 71.047L147.664 71.0471V70.741L147.603 70.7411C138.143 70.7411 130.47 63.0927 130.43 53.6426H130.125C130.086 62.8998 122.722 70.4281 113.529 70.7316Z" fill="#313746"/>
<rect x="103.877" y="244.9" width="58.8212" height="2.61427" transform="rotate(90 103.877 244.9)" fill="url(#paint0_linear_412_4446)"/>
<rect x="97.3818" y="288.877" width="26.1427" height="1.30714" transform="rotate(90 97.3818 288.877)" fill="url(#paint1_linear_412_4446)"/>
<rect x="111.256" y="282.326" width="84.9639" height="1.30714" transform="rotate(90 111.256 282.326)" fill="url(#paint2_linear_412_4446)"/>
<defs>
<linearGradient id="paint0_linear_412_4446" x1="121.674" y1="244.9" x2="155.178" y2="244.9" gradientUnits="userSpaceOnUse">
<stop stop-color="#FE5252"/>
<stop offset="1" stop-color="#FE5252" stop-opacity="0"/>
</linearGradient>
<linearGradient id="paint1_linear_412_4446" x1="105.292" y1="288.877" x2="120.182" y2="288.877" gradientUnits="userSpaceOnUse">
<stop stop-color="#FE5252"/>
<stop offset="1" stop-color="#FE5252" stop-opacity="0"/>
</linearGradient>
<linearGradient id="paint2_linear_412_4446" x1="136.962" y1="282.326" x2="185.358" y2="282.326" gradientUnits="userSpaceOnUse">
<stop stop-color="#FE5252"/>
<stop offset="1" stop-color="#FE5252" stop-opacity="0"/>
</linearGradient>
</defs>
</svg>
