<svg width="76" height="48" viewBox="0 0 76 48" fill="none" xmlns="http://www.w3.org/2000/svg">
<path d="M16.0839 22.9004L19.4626 25.7965V47.9999H12.7051V25.7965L16.0839 22.9004Z" fill="white"/>
<path d="M6.98083 48.0002V16.3081H0V48.0002H6.98083Z" fill="white"/>
<path d="M54.6915 41.0882C53.7493 41.4736 52.8927 41.6878 52.079 41.6878C50.3659 41.6878 49.595 40.7456 49.595 38.8183V31.0666H55.0341V25.4991H49.595V20.1885H42.8284L42.6999 25.5847H34.2201V23.6575C34.2201 21.6875 35.0338 20.7453 36.6612 20.7453C37.4321 20.7453 38.2887 20.9166 39.0596 21.302L40.9011 16.5054C39.1452 15.606 37.0039 15.1777 35.1195 15.1777C30.1515 15.1777 27.2393 18.0043 27.2393 22.8438V25.4991H23.342V31.0666H27.2393V47.9834H34.2201V31.0666H42.6142V39.5036C42.6142 45.0283 45.3552 47.9834 50.7085 47.9834C52.5501 47.9834 54.5202 47.5979 56.2333 46.827L54.6915 41.0882Z" fill="white"/>
<path d="M72.8736 25.1993C69.8329 25.1993 67.563 26.6126 66.1069 28.497L66.0213 25.4991H59.64V48.0002H66.6208V37.9618C66.6208 34.193 68.1198 31.7519 71.7173 31.7519C72.5738 31.7519 73.4732 31.8803 74.4582 32.1801L76 25.7132C74.8865 25.3278 73.8586 25.1993 72.8736 25.1993Z" fill="white"/>
<rect width="18.342" height="18.342" transform="translate(6.91309 0.697266)" fill="white"/>
<path d="M6.91309 9.93728C11.9235 9.97409 15.9782 14.0288 16.015 19.0392H16.1531C16.1899 14.0288 20.2446 9.97409 25.2551 9.93728V9.79922C20.2446 9.76241 16.1899 5.70769 16.1531 0.697266H16.015C15.9782 5.70769 11.9235 9.76241 6.91309 9.79922V9.93728Z" fill="#FE5252"/>
</svg>
