<svg width="82" height="52" viewBox="0 0 82 52" fill="none" xmlns="http://www.w3.org/2000/svg">
<path d="M18.0839 23.9004L21.4626 26.7965V48.9999H14.7051V26.7965L18.0839 23.9004Z" fill="white"/>
<path d="M8.98083 49.0002V17.3081H2V49.0002H8.98083Z" fill="white"/>
<path d="M56.6915 42.0882C55.7493 42.4736 54.8927 42.6878 54.079 42.6878C52.3659 42.6878 51.595 41.7456 51.595 39.8183V32.0666H57.0341V26.4991H51.595V21.1885H44.8284L44.6999 26.5847H36.2201V24.6575C36.2201 22.6875 37.0338 21.7453 38.6612 21.7453C39.4321 21.7453 40.2887 21.9166 41.0596 22.302L42.9011 17.5054C41.1452 16.606 39.0039 16.1777 37.1195 16.1777C32.1515 16.1777 29.2393 19.0043 29.2393 23.8438V26.4991H25.342V32.0666H29.2393V48.9834H36.2201V32.0666H44.6142V40.5036C44.6142 46.0283 47.3552 48.9834 52.7085 48.9834C54.5501 48.9834 56.5202 48.5979 58.2333 47.827L56.6915 42.0882Z" fill="white"/>
<path d="M74.8736 26.1993C71.8329 26.1993 69.563 27.6126 68.1069 29.497L68.0213 26.4991H61.64V49.0002H68.6208V38.9618C68.6208 35.193 70.1198 32.7519 73.7173 32.7519C74.5738 32.7519 75.4732 32.8803 76.4582 33.1801L78 26.7132C76.8865 26.3278 75.8586 26.1993 74.8736 26.1993Z" fill="white"/>
<path d="M8.91309 10.9373C13.9235 10.9741 17.9782 15.0288 18.015 20.0392H18.1531C18.1899 15.0288 22.2446 10.9741 27.2551 10.9373V10.7992C22.2446 10.7624 18.1899 6.70769 18.1531 1.69727H18.015C17.9782 6.70769 13.9235 10.7624 8.91309 10.7992V10.9373Z" fill="#FE5252"/>
</svg>
