<svg width="80" height="80" viewBox="-10 -10 95 75" fill="none" xmlns="http://www.w3.org/2000/svg">
<path d="M20.25 37.5V25C20.25 20.0272 22.2254 15.2581 25.7417 11.7417C29.2581 8.22544 34.0272 6.25 39 6.25C43.9728 6.25 48.7419 8.22544 52.2582 11.7417C55.7746 15.2581 57.75 20.0272 57.75 25V37.5" stroke="#93C600" stroke-width="4" stroke-linecap="round" stroke-linejoin="round"/>
<path d="M57.75 39.5837C57.75 40.6887 57.311 41.7485 56.5296 42.5299C55.7482 43.3113 54.6884 43.7503 53.5833 43.7503H51.5C50.3949 43.7503 49.3351 43.3113 48.5537 42.5299C47.7723 41.7485 47.3333 40.6887 47.3333 39.5837V33.3337C47.3333 32.2286 47.7723 31.1688 48.5537 30.3874C49.3351 29.606 50.3949 29.167 51.5 29.167H57.75V39.5837ZM20.25 39.5837C20.25 40.6887 20.689 41.7485 21.4704 42.5299C22.2518 43.3113 23.3116 43.7503 24.4167 43.7503H26.5C27.6051 43.7503 28.6649 43.3113 29.4463 42.5299C30.2277 41.7485 30.6667 40.6887 30.6667 39.5837V33.3337C30.6667 32.2286 30.2277 31.1688 29.4463 30.3874C28.6649 29.606 27.6051 29.167 26.5 29.167H20.25V39.5837Z" stroke="#93C600" stroke-width="4" stroke-linecap="round" stroke-linejoin="round"/>
<path fill-rule="evenodd" clip-rule="evenodd" d="M0 32.0063V32.1014C2.65712 32.1893 4.79261 34.3377 4.85985 37H4.9528C5.02147 34.2814 7.24683 32.0986 9.98201 32.0986L10 32.0986V32.009L9.98201 32.009C7.21082 32.009 4.96296 29.7684 4.95122 27H4.86143C4.84993 29.7118 2.69284 31.9172 0 32.0063Z" fill="white"/>
<path fill-rule="evenodd" clip-rule="evenodd" d="M7 39.0038V39.0609C8.59427 39.1136 9.87556 40.4026 9.91591 42H9.97168C10.0129 40.3688 11.3481 39.0592 12.9892 39.0592L13 39.0592V39.0054L12.9892 39.0054C11.3265 39.0054 9.97777 37.6611 9.97073 36H9.91686C9.90996 37.6271 8.61571 38.9503 7 39.0038Z" fill="white"/>
<path fill-rule="evenodd" clip-rule="evenodd" d="M63 29.159V29.2381C65.2074 29.3112 66.9815 31.096 67.0374 33.3077H67.1146C67.1717 31.0492 69.0205 29.2358 71.2927 29.2358L71.3077 29.2358V29.1613L71.2927 29.1613C68.9905 29.1613 67.1231 27.2999 67.1133 25H67.0387C67.0291 27.2529 65.2371 29.085 63 29.159Z" fill="white"/>
<path fill-rule="evenodd" clip-rule="evenodd" d="M68.5391 38.8514V38.9305C70.7465 39.0035 72.5206 40.7883 72.5765 43.0001H72.6537C72.7108 40.7415 74.5595 38.9282 76.8318 38.9282L76.8468 38.9282V38.8537L76.8318 38.8537C74.5296 38.8537 72.6622 36.9923 72.6524 34.6924H72.5778C72.5682 36.9452 70.7762 38.7774 68.5391 38.8514Z" fill="white"/>
</svg>
