<svg width="80" height="80" viewBox="-20 -10 90 75" fill="none" xmlns="http://www.w3.org/2000/svg">
<path d="M27.9166 43.667C24.2584 43.6781 20.7296 42.3139 18.0302 39.8449C15.3307 37.376 13.6578 33.9827 13.3431 30.3381C13.0285 26.6934 14.0951 23.0636 16.3315 20.1685C18.5679 17.2735 21.8106 15.3247 25.4166 14.7087C37.2916 12.417 40.4166 11.3337 44.5833 6.16699C46.6666 10.3337 48.7499 14.8753 48.7499 22.8337C48.7499 34.292 38.7916 43.667 27.9166 43.667Z" stroke="#93C600" stroke-width="4" stroke-linecap="round" stroke-linejoin="round"/>
<path d="M9.16699 45.75C9.16699 39.5 13.0212 34.5833 19.7503 33.25C24.792 32.25 30.0003 29.0833 32.0837 27" stroke="#93C600" stroke-width="4" stroke-linecap="round" stroke-linejoin="round"/>
<path fill-rule="evenodd" clip-rule="evenodd" d="M0 9.01124V9.18256C4.783 9.34054 8.6271 13.2077 8.74816 18H8.91505C9.03866 13.1065 13.0443 9.17754 17.9676 9.17754L18 9.1776V9.0162L17.9676 9.01626C12.9795 9.01626 8.93334 4.98316 8.91219 0H8.75102C8.7303 4.88139 4.84731 8.85113 0 9.01124Z" fill="white"/>
</svg>
