<svg width="80" height="80" viewBox="-10 -10 70 96" fill="none" xmlns="http://www.w3.org/2000/svg">
<path d="M42.5418 25.5413C41.4967 24.4925 40.2548 23.6603 38.8873 23.0925C37.5198 22.5247 36.0538 22.2324 34.5731 22.2324C33.0924 22.2324 31.6263 22.5247 30.2589 23.0925C28.8914 23.6603 27.6495 24.4925 26.6043 25.5413L25.0002 27.1663L23.396 25.5413C22.3508 24.4925 21.1089 23.6603 19.7415 23.0925C18.374 22.5247 16.9079 22.2324 15.4273 22.2324C13.9466 22.2324 12.4805 22.5247 11.1131 23.0925C9.7456 23.6603 8.50368 24.4925 7.45851 25.5413C3.04185 29.958 2.77101 37.4163 8.33351 43.083L25.0002 59.7496L41.6668 43.083C47.2293 37.4163 46.9585 29.958 42.5418 25.5413Z" stroke="#93C600" stroke-width="4" stroke-linecap="round" stroke-linejoin="round"/>
<path fill-rule="evenodd" clip-rule="evenodd" d="M16 9.01124V9.18256C20.783 9.34054 24.6271 13.2077 24.7482 18H24.915C25.0387 13.1065 29.0443 9.17754 33.9676 9.17754L34 9.1776V9.0162L33.9676 9.01626C28.9795 9.01626 24.9333 4.98316 24.9122 0H24.751C24.7303 4.88139 20.8473 8.85113 16 9.01124Z" fill="white"/>
</svg>
