<svg width="80" height="80" viewBox="-15 -10 80 90" fill="none" xmlns="http://www.w3.org/2000/svg">
<path d="M16.667 57.833H33.3337" stroke="#93C600" stroke-width="4" stroke-linecap="round" stroke-linejoin="round"/>
<path d="M25 34.917V57.8337" stroke="#93C600" stroke-width="4" stroke-linecap="round" stroke-linejoin="round"/>
<path d="M39.5837 18.25L25.0003 34.9167L10.417 18.25H39.5837Z" stroke="#93C600" stroke-width="4" stroke-linecap="round" stroke-linejoin="round"/>
<path fill-rule="evenodd" clip-rule="evenodd" d="M21 12.0112V12.1826C25.783 12.3405 29.6271 16.2077 29.7482 21H29.915C30.0387 16.1065 34.0443 12.1775 38.9676 12.1775L39 12.1776V12.0162L38.9676 12.0163C33.9795 12.0163 29.9333 7.98316 29.9122 3H29.751C29.7303 7.88139 25.8473 11.8511 21 12.0112Z" fill="white"/>
<path fill-rule="evenodd" clip-rule="evenodd" d="M18 4.50563V4.59126C20.3914 4.67037 22.3133 6.60393 22.3739 9H22.4575C22.5193 6.55323 24.5221 4.58875 26.9838 4.58875L27 4.58877V4.50812L26.9838 4.50814C24.4897 4.50814 22.4667 2.49159 22.4561 0H22.3753C22.3649 2.44063 20.4236 4.42546 18 4.50563Z" fill="white"/>
</svg>
