<svg width="80" height="80" viewBox="-10 -10 70 90" fill="none" xmlns="http://www.w3.org/2000/svg">
<path d="M18.75 46.5H31.25" stroke="#93C600" stroke-width="4" stroke-linecap="round" stroke-linejoin="round"/>
<path d="M20.833 54.833H29.1663" stroke="#93C600" stroke-width="4" stroke-linecap="round" stroke-linejoin="round"/>
<path d="M31.4375 38.167C31.8125 36.1253 32.7917 34.542 34.375 32.9587C35.381 32.0326 36.1795 30.9041 36.7181 29.6474C37.2567 28.3906 37.5232 27.0341 37.5 25.667C37.5 22.3518 36.183 19.1724 33.8388 16.8282C31.4946 14.484 28.3152 13.167 25 13.167C21.6848 13.167 18.5054 14.484 16.1612 16.8282C13.817 19.1724 12.5 22.3518 12.5 25.667C12.5 27.7503 12.9792 30.3128 15.625 32.9587C17.1334 34.338 18.1625 36.1625 18.5625 38.167" stroke="#93C600" stroke-width="4" stroke-linecap="round" stroke-linejoin="round"/>
<path fill-rule="evenodd" clip-rule="evenodd" d="M32 9.01124V9.18256C36.783 9.34054 40.6271 13.2077 40.7482 18H40.915C41.0387 13.1065 45.0443 9.17754 49.9676 9.17754L50 9.1776V9.0162L49.9676 9.01626C44.9795 9.01626 40.9333 4.98316 40.9122 0H40.751C40.7303 4.88139 36.8473 8.85113 32 9.01124Z" fill="white"/>
</svg>
