<svg width="354" height="365" viewBox="0 0 354 365" fill="none" xmlns="http://www.w3.org/2000/svg">
<ellipse cx="175.438" cy="354.36" rx="138.344" ry="5.00227" fill="#F2F2F2"/>
<ellipse cx="175.438" cy="359.362" rx="138.344" ry="5.00227" fill="#F2F2F2"/>
<rect x="37.0938" y="354.359" width="20.3217" height="5.00227" fill="#F2F2F2"/>
<rect x="293.459" y="354.359" width="20.3217" height="5.00227" fill="#F2F2F2"/>
<rect x="293.459" y="354.359" width="20.3217" height="5.00227" fill="#F2F2F2"/>
<path d="M0 178.332C96.7012 179.043 174.957 257.299 175.668 354H178.332C179.043 257.299 257.299 179.043 354 178.332V175.668C257.299 174.957 179.043 96.7012 178.332 0H175.668C174.957 96.7012 96.7012 174.957 0 175.668V178.332Z" fill="#8FE8DC"/>
<g style="mix-blend-mode:multiply">
<rect x="158" y="218.787" width="37.5171" height="6.87813" fill="#8FE8DC"/>
</g>
<g style="mix-blend-mode:multiply">
<rect x="152" y="206.281" width="50.3354" height="6.87813" fill="#8FE8DC"/>
</g>
<g style="mix-blend-mode:multiply">
<rect x="164" y="231.293" width="26.2619" height="6.87813" fill="#8FE8DC"/>
</g>
<mask id="path-10-inside-1_413_5050" fill="white">
<path d="M158 134.622C158 132.413 159.791 130.622 162 130.622H191.204C193.414 130.622 195.204 132.413 195.204 134.622V200.654H158V134.622Z"/>
</mask>
<path d="M158 134.622C158 132.413 159.791 130.622 162 130.622H191.204C193.414 130.622 195.204 132.413 195.204 134.622V200.654H158V134.622Z" fill="#FE5252"/>
<path d="M195.204 200.654V201.654H196.204V200.654H195.204ZM158 200.654H157V201.654H158V200.654ZM162 131.622H191.204V129.622H162V131.622ZM194.204 134.622V200.654H196.204V134.622H194.204ZM195.204 199.654H158V201.654H195.204V199.654ZM159 200.654V134.622H157V200.654H159ZM191.204 131.622C192.861 131.622 194.204 132.965 194.204 134.622H196.204C196.204 131.861 193.966 129.622 191.204 129.622V131.622ZM162 129.622C159.239 129.622 157 131.861 157 134.622H159C159 132.965 160.343 131.622 162 131.622V129.622Z" fill="black" mask="url(#path-10-inside-1_413_5050)"/>
<line x1="149" y1="200.154" x2="205.276" y2="200.154" stroke="black"/>
<line x1="155" y1="212.91" x2="199.395" y2="212.91" stroke="black" stroke-width="0.5"/>
<line x1="162" y1="225.416" x2="192.639" y2="225.416" stroke="black" stroke-width="0.5"/>
<line x1="166" y1="237.921" x2="187.885" y2="237.921" stroke="black" stroke-width="0.5"/>
<line x1="166" y1="206.031" x2="187.885" y2="206.031" stroke="white" stroke-width="0.5"/>
<line x1="169" y1="218.537" x2="184.007" y2="218.537" stroke="white" stroke-width="0.5"/>
<line x1="172" y1="231.043" x2="182.63" y2="231.043" stroke="white" stroke-width="0.5"/>
<g style="mix-blend-mode:multiply">
<rect x="158" y="218.787" width="37.5171" height="6.87813" fill="#8FE8DC"/>
</g>
<g style="mix-blend-mode:multiply">
<rect x="152" y="206.281" width="50.3354" height="6.87813" fill="#8FE8DC"/>
</g>
<g style="mix-blend-mode:multiply">
<rect x="164" y="231.293" width="26.2619" height="6.87813" fill="#8FE8DC"/>
</g>
<mask id="path-22-inside-2_413_5050" fill="white">
<path d="M158 134.622C158 132.413 159.791 130.622 162 130.622H191.204C193.414 130.622 195.204 132.413 195.204 134.622V200.654H158V134.622Z"/>
</mask>
<path d="M158 134.622C158 132.413 159.791 130.622 162 130.622H191.204C193.414 130.622 195.204 132.413 195.204 134.622V200.654H158V134.622Z" fill="#FE5252"/>
<path d="M195.204 200.654V201.654H196.204V200.654H195.204ZM158 200.654H157V201.654H158V200.654ZM162 131.622H191.204V129.622H162V131.622ZM194.204 134.622V200.654H196.204V134.622H194.204ZM195.204 199.654H158V201.654H195.204V199.654ZM159 200.654V134.622H157V200.654H159ZM191.204 131.622C192.861 131.622 194.204 132.965 194.204 134.622H196.204C196.204 131.861 193.966 129.622 191.204 129.622V131.622ZM162 129.622C159.239 129.622 157 131.861 157 134.622H159C159 132.965 160.343 131.622 162 131.622V129.622Z" fill="black" mask="url(#path-22-inside-2_413_5050)"/>
<line x1="149" y1="200.154" x2="205.276" y2="200.154" stroke="black"/>
<line x1="155" y1="212.91" x2="199.395" y2="212.91" stroke="black" stroke-width="0.5"/>
<line x1="162" y1="225.416" x2="192.639" y2="225.416" stroke="black" stroke-width="0.5"/>
<line x1="166" y1="237.921" x2="187.885" y2="237.921" stroke="black" stroke-width="0.5"/>
<line x1="166" y1="206.031" x2="187.885" y2="206.031" stroke="white" stroke-width="0.5"/>
<line x1="169" y1="218.537" x2="184.007" y2="218.537" stroke="white" stroke-width="0.5"/>
<line x1="172" y1="231.043" x2="182.63" y2="231.043" stroke="white" stroke-width="0.5"/>
</svg>
