<svg width="28" height="23" viewBox="0 0 28 23" fill="none" xmlns="http://www.w3.org/2000/svg">
<path d="M8.80544 22.7515C19.3715 22.7515 25.1507 13.9975 25.1507 6.40618C25.1507 6.15754 25.1507 5.91002 25.1339 5.66362C26.2582 4.8504 27.2287 3.84348 28 2.69002C26.9516 3.15482 25.8394 3.4595 24.7005 3.59386C25.8998 2.87599 26.7973 1.74677 27.2261 0.416416C26.0984 1.08563 24.8647 1.55721 23.5782 1.81082C22.7121 0.889823 21.5666 0.279965 20.3189 0.0756149C19.0712 -0.128735 17.791 0.0838168 16.6763 0.680378C15.5616 1.27694 14.6746 2.22425 14.1525 3.37572C13.6305 4.52719 13.5025 5.81862 13.7883 7.05018C11.5044 6.93561 9.27005 6.34205 7.23036 5.30802C5.19068 4.274 3.39122 2.82262 1.9488 1.0481C1.21418 2.31276 0.989184 3.80986 1.31962 5.23459C1.65005 6.65932 2.51107 7.90454 3.72736 8.71674C2.8131 8.68995 1.91876 8.44331 1.12 7.9977V8.0705C1.12036 9.39682 1.57949 10.6822 2.41952 11.7086C3.25954 12.735 4.42874 13.4392 5.7288 13.7019C4.88306 13.9325 3.99569 13.9663 3.13488 13.8004C3.50212 14.9418 4.21683 15.9399 5.17911 16.6552C6.14139 17.3705 7.30313 17.7672 8.50192 17.7899C7.31084 18.7261 5.94687 19.4183 4.48802 19.8269C3.02917 20.2354 1.50408 20.3524 0 20.171C2.62714 21.8568 5.68391 22.7511 8.80544 22.747" fill="#1DA1F2"/>
</svg>
